<svg xmlns="http://www.w3.org/2000/svg" viewBox="0 0 512 512">
  <defs>
    <linearGradient id="bg" x1="0%" y1="0%" x2="100%" y2="100%">
      <stop offset="0%" stop-color="#09111f" />
      <stop offset="100%" stop-color="#03060d" />
    </linearGradient>
    <radialGradient id="sun" cx="50%" cy="50%" r="50%">
      <stop offset="0%" stop-color="#ffd88a" />
      <stop offset="100%" stop-color="#f29a42" />
    </radialGradient>
    <linearGradient id="ring" x1="0%" y1="0%" x2="100%" y2="100%">
      <stop offset="0%" stop-color="#7ff2db" />
      <stop offset="100%" stop-color="#7da1ff" />
    </linearGradient>
  </defs>
  <rect width="512" height="512" rx="108" fill="url(#bg)" />
  <rect x="34" y="34" width="444" height="444" rx="90" fill="none" stroke="#183453" stroke-opacity="0.8" stroke-width="4" />
  <g opacity="0.35" stroke="#6fb5ff" stroke-width="1.5">
    <path d="M92 160H420" />
    <path d="M92 208H420" />
    <path d="M92 256H420" />
    <path d="M92 304H420" />
    <path d="M92 352H420" />
    <path d="M160 92V420" />
    <path d="M208 92V420" />
    <path d="M256 92V420" />
    <path d="M304 92V420" />
    <path d="M352 92V420" />
  </g>
  <circle cx="256" cy="256" r="34" fill="url(#sun)" />
  <circle cx="256" cy="256" r="64" fill="none" stroke="#ffd88a" stroke-opacity="0.35" stroke-width="22" />
  <circle cx="318" cy="324" r="42" fill="#071a29" stroke="url(#ring)" stroke-width="16" />
  <circle cx="318" cy="324" r="22" fill="#6ab3ff" fill-opacity="0.75" />
  <circle cx="166" cy="176" r="24" fill="#d7a4aa" fill-opacity="0.82" stroke="#7ff2db" stroke-width="8" />
  <path d="M168 176C204 224 242 262 318 324" fill="none" stroke="#ffb387" stroke-opacity="0.7" stroke-width="4" stroke-linecap="round" />
</svg>
